# xmcd
#
# Track frame offsets:
#	150
#	18560
#	37354
#	62621
#	74015
#	92568
#	108512
#	119179
#	137846
#	158102
#	179241
#	195543
#	214964
#	230886
#
# Disc length: 3211 seconds
#
# Revision: 1
# Processed by: cddbd v1.5.2PL0 Copyright (c) Steve Scherf et al.
# Submitted via: audiograbber 1.83.01
#
DISCID=e50c890e
DTITLE=Steve Guyger - Radio Blues
DYEAR=2008
DGENRE=Blues
TTITLE0=Lookie Here
TTITLE1=You're So Fine
TTITLE2=Cool in the Evening
TTITLE3=Little Rita
TTITLE4=Blues Won't let Me Be
TTITLE5=School is Over
TTITLE6=Afghan Rumble
TTITLE7=I'm Shakin'
TTITLE8=Oh Red
TTITLE9=I Can See by Your Eyes
TTITLE10=Won't You Come on Out Tonight
TTITLE11=Hey Little Baby
TTITLE12=Let Me Hang Around
TTITLE13=Honeydripper
EXTD=
EXTT0=
EXTT1=
EXTT2=
EXTT3=
EXTT4=
EXTT5=
EXTT6=
EXTT7=
EXTT8=
EXTT9=
EXTT10=
EXTT11=
EXTT12=
EXTT13=
PLAYORDER=
